HIERARCHY
ROOT Hips
{
	OFFSET 0.00000 0.00000 0.00000
	CHANNELS 6 Xposition Yposition Zposition Zrotation Yrotation Xrotation 
	JOINT LHipJoint
	{
		OFFSET 0 0 0
		CHANNELS 3 Zrotation Yrotation Xrotation
		JOINT LeftUpLeg
		{
			OFFSET 1.44960 -1.75505 0.85172
			CHANNELS 3 Zrotation Yrotation Xrotation
			JOINT LeftLeg
			{
				OFFSET 2.40573 -6.60971 0.00000
				CHANNELS 3 Zrotation Yrotation Xrotation
				JOINT LeftFoot
				{
					OFFSET 2.58773 -7.10974 0.00000
					CHANNELS 3 Zrotation Yrotation Xrotation
					JOINT LeftToeBase
					{
						OFFSET 0.18252 -0.50147 1.77316
						CHANNELS 3 Zrotation Yrotation Xrotation
						End Site
						{
							OFFSET 0.00000 -0.00000 0.92990
						}
					}
				}
			}
		}
	}
	JOINT RHipJoint
	{
		OFFSET 0 0 0
		CHANNELS 3 Zrotation Yrotation Xrotation
		JOINT RightUpLeg
		{
			OFFSET -1.40744 -1.75505 0.85172
			CHANNELS 3 Zrotation Yrotation Xrotation
			JOINT RightLeg
			{
				OFFSET -2.43714 -6.69600 0.00000
				CHANNELS 3 Zrotation Yrotation Xrotation
				JOINT RightFoot
				{
					OFFSET -2.51650 -6.91404 0.00000
					CHANNELS 3 Zrotation Yrotation Xrotation
					JOINT RightToeBase
					{
						OFFSET -0.25383 -0.69740 1.96384
						CHANNELS 3 Zrotation Yrotation Xrotation
						End Site
						{
							OFFSET -0.00000 -0.00000 1.04244
						}
					}
				}
			}
		}
	}
	JOINT LowerBack
	{
		OFFSET 0 0 0
		CHANNELS 3 Zrotation Yrotation Xrotation
		JOINT Spine
		{
			OFFSET 0.00579 2.14458 -0.24367
			CHANNELS 3 Zrotation Yrotation Xrotation
			JOINT Spine1
			{
				OFFSET 0.05899 2.16316 -0.04515
				CHANNELS 3 Zrotation Yrotation Xrotation
				JOINT Neck
				{
					OFFSET 0 0 0
					CHANNELS 3 Zrotation Yrotation Xrotation
					JOINT Neck1
					{
						OFFSET -0.01650 1.59577 0.24841
						CHANNELS 3 Zrotation Yrotation Xrotation
						JOINT Head
						{
							OFFSET -0.01016 1.63072 -0.17782
							CHANNELS 3 Zrotation Yrotation Xrotation
							End Site
							{
								OFFSET -0.00250 1.64111 -0.08717
							}
						}
					}
				}
				JOINT LeftShoulder
				{
					OFFSET 0 0 0
					CHANNELS 3 Zrotation Yrotation Xrotation
					JOINT LeftArm
					{
						OFFSET 3.17745 0.95174 -0.45729
						CHANNELS 3 Zrotation Yrotation Xrotation
						JOINT LeftForeArm
						{
							OFFSET 4.93485 -0.00000 0.00000
							CHANNELS 3 Zrotation Yrotation Xrotation
							JOINT LeftHand
							{
								OFFSET 3.41719 -0.00000 -0.00000
								CHANNELS 3 Zrotation Yrotation Xrotation
								JOINT LeftFingerBase
								{
									OFFSET 0 0 0
									CHANNELS 3 Zrotation Yrotation Xrotation
									JOINT LeftHandIndex1
									{
										OFFSET 0.62410 -0.00000 -0.00000
										CHANNELS 3 Zrotation Yrotation Xrotation
										End Site
										{
											OFFSET 0.50317 -0.00000 -0.00000
										}
									}
								}
								JOINT LThumb
								{
									OFFSET 0 0 0
									CHANNELS 3 Zrotation Yrotation Xrotation
									End Site
									{
										OFFSET 0.51085 -0.00000 0.51085
									}
								}
							}
						}
					}
				}
				JOINT RightShoulder
				{
					OFFSET 0 0 0
					CHANNELS 3 Zrotation Yrotation Xrotation
					JOINT RightArm
					{
						OFFSET -2.87924 1.13038 -0.75204
						CHANNELS 3 Zrotation Yrotation Xrotation
						JOINT RightForeArm
						{
							OFFSET -5.22034 -0.00000 0.00000
							CHANNELS 3 Zrotation Yrotation Xrotation
							JOINT RightHand
							{
								OFFSET -3.41809 -0.00000 -0.00000
								CHANNELS 3 Zrotation Yrotation Xrotation
								JOINT RightFingerBase
								{
									OFFSET 0 0 0
									CHANNELS 3 Zrotation Yrotation Xrotation
									JOINT RightHandIndex1
									{
										OFFSET -0.77534 -0.00000 -0.00000
										CHANNELS 3 Zrotation Yrotation Xrotation
										End Site
										{
											OFFSET -0.62510 -0.00000 -0.00000
										}
									}
								}
								JOINT RThumb
								{
									OFFSET 0 0 0
									CHANNELS 3 Zrotation Yrotation Xrotation
									End Site
									{
										OFFSET -0.63464 -0.00000 0.63464
									}
								}
							}
						}
					}
				}
			}
		}
	}
}
MOTION
Frames: 14
Frame Time: .0083333
0.7217 17.4325 -24.4928 5.3354 7.7058 1.1876 0.0000 0.0000 0.0000 -29.9076 0.4920 -10.7394 0.7739 5.6170 15.6771 -0.4382 -19.5957 -9.7157 0.0581 1.5554 4.2785 0.0000 0.0000 0.0000 14.5747 -2.3476 -18.4310 -11.6372 -18.2330 64.8340 -0.2497 -5.8453 -13.3765 -0.8116 -5.7490 16.0579 -9.2832 0.3051 9.4372 -0.1189 -0.5549 1.1190 5.1764 -0.1275 -4.0427 -2.6107 -2.8037 -20.8830 1.4585 -3.2738 11.5337 0.5089 -1.5531 6.9848 -0.0000 0.0000 0.0000 -84.6837 5.0777 23.0869 15.2119 -24.4405 -3.3131 -0.0000 -0.0000 7.5775 4.0554 42.4904 2.7418 -7.1250 0.0000 -0.0000 -45.0886 67.3128 -26.2875 -0.0000 0.0000 0.0000 81.7626 -1.4048 4.8066 -12.0030 19.8091 -2.1033 0.0000 -0.0000 -21.9803 -25.5405 24.8812 -11.3676 7.1250 -0.0000 -0.0000 2.4198 -2.7970 2.3009
0.7266 17.4311 -24.4219 5.1621 7.9056 1.3475 0.0000 0.0000 0.0000 -29.7023 0.2205 -10.8616 0.8320 5.8191 16.2603 -0.4004 -19.4224 -9.9379 0.0402 1.2942 3.5587 0.0000 0.0000 0.0000 14.6986 -1.7351 -19.6500 -11.6112 -18.2214 64.7509 -0.2727 -6.0272 -13.8978 -0.7842 -5.6534 15.7819 -9.3274 0.2182 9.2714 -0.0593 -0.6545 1.1114 5.2746 -0.1802 -3.9409 -2.4540 -2.5550 -20.9626 1.4848 -2.9850 11.4793 0.5267 -1.4044 6.9721 0.0000 0.0000 0.0000 -84.4911 4.2041 23.2441 15.2201 -24.4519 -3.3165 -0.0000 -0.0000 7.2746 5.2649 41.0293 3.4617 -7.1250 0.0000 -0.0000 -41.4455 66.6442 -23.2513 0.0000 0.0000 0.0000 81.5450 -1.7030 6.1755 -12.7637 20.9401 -2.3682 0.0000 -0.0000 -23.3023 -25.6517 24.5527 -11.2851 7.1250 -0.0000 -0.0000 2.3088 -3.1235 2.1814
0.7419 17.4085 -24.3292 5.3331 8.1352 1.0113 0.0000 0.0000 0.0000 -30.0025 0.3396 -10.6102 0.9073 6.0700 16.9877 -0.3087 -19.4356 -10.8662 0.0279 1.0776 2.9622 0.0000 0.0000 0.0000 14.2963 -1.3392 -20.1471 -11.5531 -18.1953 64.5650 -0.3203 -5.9154 -14.4915 -0.9689 -6.2669 17.5609 -9.4210 0.1426 9.5255 -0.2017 -0.8079 0.9468 5.2005 -0.2359 -4.2340 -2.2312 -2.5275 -19.9048 1.2476 -2.9909 10.8441 0.4269 -1.4258 6.5860 0.0000 0.0000 0.0000 -84.2471 4.2918 23.3228 15.4636 -24.7879 -3.4179 -0.0000 -0.0000 7.1308 4.2789 41.6835 2.8485 -7.1250 0.0000 -0.0000 -43.4871 66.8178 -24.7409 0.0000 0.0000 0.0000 81.3788 -1.9373 6.4484 -12.8003 20.9939 -2.3813 0.0000 -0.0000 -23.8513 -25.8931 25.1434 -11.6538 7.1250 -0.0000 -0.0000 2.2410 -2.4455 2.1450
0.7538 17.3864 -24.2386 5.8920 8.5911 0.8530 0.0000 0.0000 0.0000 -30.6836 0.2577 -10.1742 0.9613 6.2430 17.4910 -0.2558 -19.4775 -11.4110 0.0249 1.0196 2.8026 0.0000 0.0000 0.0000 13.4456 -1.3199 -20.6196 -11.4664 -18.1559 64.2871 -0.3953 -5.7936 -15.4140 -0.7813 -5.6432 15.7527 -9.8975 0.0855 9.8716 -0.4779 -0.9947 0.8183 5.2064 -0.3023 -4.5325 -2.4901 -2.5056 -19.9711 1.7145 -2.9709 11.3324 0.6193 -1.3841 6.7673 -0.0000 0.0000 0.0000 -83.8324 3.5907 23.6271 15.2251 -24.4587 -3.3186 -0.0000 -0.0000 6.9632 4.6202 41.4333 3.0611 -7.1250 0.0000 -0.0000 -42.7389 66.7426 -24.1796 -0.0000 0.0000 0.0000 81.4458 -2.3900 6.4516 -13.1879 21.5619 -2.5219 0.0000 -0.0000 -24.1612 -25.8871 25.0125 -11.5956 7.1250 -0.0000 -0.0000 2.2269 -2.5860 2.1258
0.7567 17.3722 -24.1547 5.4884 8.6593 0.6148 0.0000 0.0000 0.0000 -30.2410 0.2168 -9.8557 1.0160 6.4129 17.9874 -0.2108 -19.6902 -12.0062 0.1771 2.7109 7.4750 0.0000 0.0000 0.0000 13.8114 -0.6897 -21.1467 -11.3217 -18.0889 63.8218 -0.4478 -5.8661 -16.1478 -0.6027 -4.9696 13.8219 -9.5349 -0.0196 10.0262 -0.4319 -1.1085 0.8337 5.0690 -0.3629 -4.5897 -2.1960 -2.5371 -19.6459 1.5147 -3.0644 11.0307 0.5011 -1.4367 6.6101 -0.0000 0.0000 0.0000 -83.6503 2.8983 23.3354 15.2053 -24.4313 -3.3104 -0.0000 -0.0000 7.2095 4.3219 42.4207 2.9185 -7.1250 0.0000 -0.0000 -44.7108 67.3466 -26.0646 -0.0000 0.0000 0.0000 81.3488 -2.2668 6.8635 -13.5250 22.0516 -2.6471 0.0000 -0.0000 -24.3493 -26.1399 25.0791 -11.7509 7.1250 -0.0000 -0.0000 2.0827 -2.4622 1.9926
0.7727 17.3616 -24.0667 5.8254 9.0209 0.6229 0.0000 0.0000 0.0000 -30.6858 -0.1717 -9.6313 1.0862 6.6239 18.6057 -0.1498 -19.0418 -12.0495 0.0448 1.3667 3.7585 0.0000 0.0000 0.0000 13.1550 -0.3500 -21.9121 -11.1474 -18.0065 63.2593 -0.5204 -5.6099 -16.8307 -0.5618 -4.8007 13.3409 -9.8481 -0.1295 9.9585 -0.5208 -1.2888 0.7801 5.1735 -0.4451 -4.5760 -2.2721 -2.6469 -19.6486 1.8253 -3.2490 11.4720 0.5909 -1.4995 6.7646 0.0000 -0.0000 0.0000 -83.5944 2.3930 23.3882 15.2353 -24.4729 -3.3228 -0.0000 -0.0000 6.8580 5.1420 41.8379 3.4349 -7.1250 0.0000 -0.0000 -42.9091 67.1892 -24.7096 0.0000 -0.0000 0.0000 81.1252 -2.4906 7.3061 -13.8914 22.5793 -2.7863 0.0000 -0.0000 -24.9965 -26.0881 25.5849 -11.9393 7.1250 -0.0000 -0.0000 2.1841 -1.9352 2.1107
0.7758 17.3443 -23.9791 5.3970 9.0825 0.2262 0.0000 0.0000 0.0000 -30.2949 -0.3653 -9.3476 1.1832 6.9034 19.4294 0.0285 -18.2547 -13.0948 0.0118 0.7011 1.9267 0.0000 0.0000 0.0000 13.5448 0.1864 -22.1908 -10.9226 -17.8970 62.5301 -0.4927 -6.1666 -16.9414 -0.6250 -5.0588 14.0764 -9.6476 -0.1775 10.1579 -0.2896 -1.3371 0.8553 5.3165 -0.4723 -4.5984 -2.6072 -2.7362 -19.5354 1.8161 -3.2786 11.3489 0.6399 -1.5310 6.7120 0.0000 0.0000 0.0000 -83.7218 1.7086 23.3543 15.2775 -24.5313 -3.3403 -0.0000 -0.0000 6.7128 5.0558 41.7107 3.3688 -7.1250 0.0000 -0.0000 -42.7776 67.0724 -24.5136 0.0000 0.0000 0.0000 80.6987 -2.6739 8.3543 -14.4721 23.4056 -3.0131 0.0000 -0.0000 -26.0597 -26.0907 26.0347 -12.1303 7.1250 -0.0000 -0.0000 2.2461 -1.4569 2.1899
0.7819 17.3386 -23.8962 5.7368 9.3945 0.3751 0.0000 0.0000 0.0000 -30.7103 -0.7308 -8.9878 1.2237 7.0162 19.7635 0.1498 -17.8392 -13.8943 0.0021 0.2931 0.8053 0.0000 0.0000 0.0000 12.9193 0.5758 -22.9468 -10.7027 -17.7865 61.8122 -0.5752 -5.7293 -17.5573 -0.6419 -5.1255 14.2669 -10.0903 -0.1604 9.9673 -0.3984 -1.3499 0.8064 5.4479 -0.4723 -4.5348 -2.1862 -2.8869 -19.4005 1.3483 -3.5218 11.3272 0.3947 -1.6725 6.6713 0.0000 -0.0000 0.0000 -83.5165 0.8601 23.8600 15.1425 -24.3443 -3.2845 -0.0000 -0.0000 6.5589 5.3475 41.8044 3.5704 -7.1250 0.0000 -0.0000 -42.6513 67.2280 -24.5753 0.0000 -0.0000 0.0000 80.7279 -2.5536 7.5534 -14.6529 23.6603 -3.0853 0.0000 -0.0000 -25.6473 -26.0405 25.8460 -12.0249 7.1250 -0.0000 -0.0000 2.2495 -1.6680 2.1848
0.7841 17.3226 -23.8156 5.5698 9.5076 0.2225 0.0000 0.0000 0.0000 -30.5468 -0.9535 -8.7064 1.2933 7.2055 20.3255 0.0745 -18.3248 -13.5522 0.0585 1.5604 4.2922 0.0000 0.0000 0.0000 12.9356 1.1046 -23.4576 -10.4564 -17.6586 61.0031 -0.6093 -5.7189 -17.9316 -0.5986 -4.9528 13.7739 -9.9374 -0.3550 9.8954 -0.3644 -1.5689 0.9929 5.4214 -0.6036 -4.2619 -2.5922 -2.7849 -19.7473 1.9833 -3.3751 11.6538 0.6770 -1.5591 6.8512 0.0000 0.0000 0.0000 -83.4415 -0.0493 23.5546 15.2472 -24.4894 -3.3278 -0.0000 -0.0000 6.5363 5.4013 42.2954 3.6407 -7.1250 0.0000 -0.0000 -43.4486 67.5921 -25.4473 0.0000 0.0000 0.0000 80.5724 -2.2301 8.3484 -15.1065 24.2943 -3.2696 0.0000 -0.0000 -26.4222 -26.1624 26.0370 -12.1686 7.1250 -0.0000 -0.0000 2.2033 -1.4390 2.1489
0.8011 17.2974 -23.7275 5.9132 9.8355 0.0270 0.0000 0.0000 0.0000 -31.1624 -1.2375 -8.5158 1.3624 7.3878 20.8696 0.2123 -17.3140 -14.1148 0.0307 1.1304 3.1077 0.0000 0.0000 0.0000 12.2505 1.2514 -23.8467 -10.2028 -17.5223 60.1640 -0.6670 -5.5300 -18.4207 -0.4644 -4.3710 12.1229 -10.1274 -0.4076 10.1666 -0.5309 -1.7072 0.8756 5.3780 -0.6520 -4.5158 -2.4859 -2.7865 -19.2908 2.0156 -3.4236 11.6660 0.6698 -1.5779 6.7803 0.0000 0.0000 0.0000 -83.2622 -0.4419 23.7355 15.1675 -24.3789 -3.2948 -0.0000 -0.0000 6.3050 5.8985 42.7322 4.0102 -7.1250 0.0000 -0.0000 -43.7470 68.0526 -26.0819 0.0000 0.0000 0.0000 80.5381 -2.3075 7.9852 -15.2637 24.5121 -3.3346 0.0000 -0.0000 -26.1768 -25.6645 26.1948 -11.9753 7.1250 -0.0000 -0.0000 2.5242 -1.3788 2.4651
0.8038 17.2891 -23.6375 5.4537 9.8739 -0.1017 0.0000 0.0000 0.0000 -30.7227 -1.5662 -8.0466 1.4146 7.5223 21.2722 0.2512 -16.7424 -14.1180 0.1019 2.0585 5.6673 0.0000 0.0000 0.0000 12.6032 1.9903 -24.2579 -9.8969 -17.3514 59.1431 -0.6847 -5.7004 -18.7311 -0.4598 -4.3498 12.0630 -9.7843 -0.5331 10.1005 -0.3457 -1.8118 0.9796 5.3917 -0.7208 -4.3545 -2.2426 -2.6387 -19.9010 1.6062 -3.2105 11.8701 0.5146 -1.4973 6.9307 -0.0000 -0.0000 0.0000 -83.2572 -1.2095 23.7307 15.2315 -24.4677 -3.3212 -0.0000 -0.0000 5.6875 6.1481 41.8368 4.1096 -7.1250 0.0000 -0.0000 -41.9207 67.4966 -24.3395 -0.0000 -0.0000 0.0000 80.2962 -2.1519 8.7062 -15.7589 25.1926 -3.5427 0.0000 -0.0000 -26.9253 -25.7615 26.5552 -12.1748 7.1250 -0.0000 -0.0000 2.5173 -0.9767 2.4764
0.8111 17.2816 -23.5547 5.5037 10.2986 -0.0519 0.0000 0.0000 0.0000 -30.8436 -2.0125 -7.6863 1.4482 7.6073 21.5276 0.2416 -16.8272 -14.0830 0.2301 3.0873 8.5220 0.0000 0.0000 0.0000 12.2660 2.2199 -24.8269 -9.5730 -17.1626 58.0515 -0.7795 -5.2909 -19.4202 -0.4581 -4.3420 12.0407 -9.8041 -0.6773 10.1311 -0.3901 -2.0224 0.7969 5.3867 -0.8092 -4.5326 -2.0600 -2.6854 -19.3368 1.5145 -3.3208 11.8672 0.4487 -1.5539 6.8345 0.0000 -0.0000 0.0000 -83.1612 -1.5617 23.8915 15.3015 -24.5645 -3.3503 -0.0000 -0.0000 5.6081 6.3618 42.0571 4.2713 -7.1250 0.0000 -0.0000 -42.0914 67.7205 -24.6570 0.0000 -0.0000 0.0000 80.2715 -2.1436 8.6675 -15.9451 25.4462 -3.6223 0.0000 -0.0000 -26.7922 -25.9130 26.7485 -12.3348 7.1250 -0.0000 -0.0000 2.4549 -0.7394 2.4252
0.8182 17.2795 -23.4664 5.5632 10.2571 -0.0670 0.0000 0.0000 0.0000 -31.0865 -2.8561 -7.1915 1.5164 7.7763 22.0368 0.4089 -15.5373 -14.8581 0.2110 2.9575 8.1606 0.0000 0.0000 0.0000 11.9545 2.6787 -25.3744 -9.2256 -16.9507 56.8672 -0.7906 -5.3151 -19.5479 -0.3590 -3.8490 10.6522 -9.9590 -0.7340 9.9853 -0.3636 -2.0998 0.7521 5.5075 -0.8454 -4.4795 -2.5392 -2.5903 -19.2934 2.1600 -3.1795 12.2283 0.7510 -1.4482 6.9624 0.0000 0.0000 0.0000 -83.2049 -2.1782 23.7169 15.2279 -24.4626 -3.3197 -0.0000 -0.0000 5.9321 6.5559 42.0430 4.4010 -7.1250 0.0000 -0.0000 -41.8753 67.7706 -24.5585 0.0000 0.0000 0.0000 80.1595 -2.3566 9.0209 -16.4692 26.1528 -3.8505 0.0000 -0.0000 -26.9288 -25.9259 26.4113 -12.2016 7.1250 -0.0000 -0.0000 2.3986 -1.0934 2.3544
0.8298 17.2610 -23.3864 5.3833 10.4630 -0.2307 0.0000 0.0000 0.0000 -31.0891 -3.0882 -6.9594 1.5610 7.8846 22.3641 0.5064 -14.5900 -15.2674 0.1704 2.6596 7.3325 0.0000 0.0000 0.0000 11.8945 2.9237 -25.6917 -8.8730 -16.7253 55.6500 -0.8294 -5.1450 -19.8182 -0.3761 -3.9389 10.9049 -9.7831 -0.7472 10.2224 -0.2627 -2.1232 0.7020 5.5283 -0.8482 -4.6640 -2.3090 -2.7137 -19.2237 1.7463 -3.3422 12.3629 0.5602 -1.5539 6.9869 0.0000 0.0000 0.0000 -83.2522 -2.6983 24.1979 15.3271 -24.5997 -3.3609 -0.0000 -0.0000 5.8401 6.9337 42.5787 4.7038 -7.1250 0.0000 -0.0000 -42.4569 68.2706 -25.4047 0.0000 0.0000 0.0000 80.0649 -2.2256 8.5522 -16.7249 26.4937 -3.9638 0.0000 -0.0000 -26.6358 -25.6587 26.6982 -12.1794 7.1250 -0.0000 -0.0000 2.5991 -0.8479 2.5630
